<mxfile host="65bd71144e">
    <diagram id="EDXfTynNo47OgpQXGWG9" name="第 1 页">
        <mxGraphModel dx="2842" dy="2564" grid="1" gridSize="10" guides="1" tooltips="1" connect="1" arrows="1" fold="1" page="1" pageScale="1" pageWidth="1169" pageHeight="1654" math="0" shadow="0">
            <root>
                <mxCell id="0"/>
                <mxCell id="1" parent="0"/>
                <mxCell id="3" value="" style="rounded=1;whiteSpace=wrap;html=1;strokeWidth=2;dashed=1;" vertex="1" parent="1">
                    <mxGeometry x="220" y="410" width="330" height="370" as="geometry"/>
                </mxCell>
                <mxCell id="7" value="" style="rounded=1;whiteSpace=wrap;html=1;strokeWidth=2;arcSize=6;fillColor=#FFE6CC;" vertex="1" parent="1">
                    <mxGeometry x="230" y="470" width="300" height="280" as="geometry"/>
                </mxCell>
                <mxCell id="249" value="" style="rounded=1;whiteSpace=wrap;html=1;strokeWidth=2;dashed=1;arcSize=20;dashPattern=12 12;opacity=80;" vertex="1" parent="1">
                    <mxGeometry x="250" y="520" width="260" height="210" as="geometry"/>
                </mxCell>
                <mxCell id="2" value="" style="rounded=1;whiteSpace=wrap;html=1;strokeWidth=2;dashed=1;" vertex="1" parent="1">
                    <mxGeometry x="560" y="410" width="100" height="370" as="geometry"/>
                </mxCell>
                <mxCell id="4" value="" style="rounded=0;whiteSpace=wrap;html=1;strokeWidth=2;arcSize=6;sketch=1;curveFitting=1;jiggle=2;" vertex="1" parent="1">
                    <mxGeometry x="220" y="-270" width="520" height="160" as="geometry"/>
                </mxCell>
                <mxCell id="5" value="VehicleHal" style="rounded=1;whiteSpace=wrap;html=1;fontStyle=1;fontSize=14;strokeWidth=2;fillColor=#FDFFE8;arcSize=6;" vertex="1" parent="1">
                    <mxGeometry x="230" y="70" width="510" height="100" as="geometry"/>
                </mxCell>
                <mxCell id="6" value="VehicleHardware" style="rounded=1;whiteSpace=wrap;html=1;fontStyle=1;fontSize=14;strokeWidth=2;arcSize=6;fillColor=#FDFFE8;" vertex="1" parent="1">
                    <mxGeometry x="230" y="290" width="510" height="110" as="geometry"/>
                </mxCell>
                <mxCell id="8" value="" style="rounded=1;whiteSpace=wrap;html=1;strokeWidth=2;fillColor=#FFF6EA;arcSize=6;" vertex="1" parent="1">
                    <mxGeometry x="780" y="-100" width="500" height="490" as="geometry"/>
                </mxCell>
                <mxCell id="11" value="" style="rounded=1;whiteSpace=wrap;html=1;strokeWidth=2;arcSize=6;fillColor=#FFE6CC;" vertex="1" parent="1">
                    <mxGeometry x="-210" y="290" width="370" height="330" as="geometry"/>
                </mxCell>
                <mxCell id="27" value="RecurrentTimer" style="text;html=1;align=center;verticalAlign=middle;whiteSpace=wrap;rounded=0;fontStyle=1;fontSize=14;" vertex="1" parent="1">
                    <mxGeometry x="230" y="470" width="110" height="30" as="geometry"/>
                </mxCell>
                <mxCell id="39" value="" style="shape=table;startSize=0;container=1;collapsible=0;childLayout=tableLayout;fontSize=16;strokeWidth=2;" vertex="1" parent="1">
                    <mxGeometry x="-95" y="365" width="120" height="60" as="geometry"/>
                </mxCell>
                <mxCell id="40" value="" style="shape=tableRow;horizontal=0;startSize=0;swimlaneHead=0;swimlaneBody=0;strokeColor=inherit;top=0;left=0;bottom=0;right=0;collapsible=0;dropTarget=0;fillColor=none;points=[[0,0.5],[1,0.5]];portConstraint=eastwest;fontSize=16;" vertex="1" parent="39">
                    <mxGeometry width="120" height="30" as="geometry"/>
                </mxCell>
                <mxCell id="41" value="" style="shape=partialRectangle;html=1;whiteSpace=wrap;connectable=0;strokeColor=inherit;overflow=hidden;fillColor=none;top=0;left=0;bottom=0;right=0;pointerEvents=1;fontSize=16;" vertex="1" parent="40">
                    <mxGeometry width="30" height="30" as="geometry">
                        <mxRectangle width="30" height="30" as="alternateBounds"/>
                    </mxGeometry>
                </mxCell>
                <mxCell id="42" style="shape=partialRectangle;html=1;whiteSpace=wrap;connectable=0;strokeColor=inherit;overflow=hidden;fillColor=none;top=0;left=0;bottom=0;right=0;pointerEvents=1;fontSize=16;" vertex="1" parent="40">
                    <mxGeometry x="30" width="30" height="30" as="geometry">
                        <mxRectangle width="30" height="30" as="alternateBounds"/>
                    </mxGeometry>
                </mxCell>
                <mxCell id="43" style="shape=partialRectangle;html=1;whiteSpace=wrap;connectable=0;strokeColor=inherit;overflow=hidden;fillColor=#FFB366;top=0;left=0;bottom=0;right=0;pointerEvents=1;fontSize=16;sketch=1;curveFitting=1;jiggle=2;" vertex="1" parent="40">
                    <mxGeometry x="60" width="30" height="30" as="geometry">
                        <mxRectangle width="30" height="30" as="alternateBounds"/>
                    </mxGeometry>
                </mxCell>
                <mxCell id="44" style="shape=partialRectangle;html=1;whiteSpace=wrap;connectable=0;strokeColor=inherit;overflow=hidden;fillColor=none;top=0;left=0;bottom=0;right=0;pointerEvents=1;fontSize=16;" vertex="1" parent="40">
                    <mxGeometry x="90" width="30" height="30" as="geometry">
                        <mxRectangle width="30" height="30" as="alternateBounds"/>
                    </mxGeometry>
                </mxCell>
                <mxCell id="45" value="" style="shape=tableRow;horizontal=0;startSize=0;swimlaneHead=0;swimlaneBody=0;strokeColor=inherit;top=0;left=0;bottom=0;right=0;collapsible=0;dropTarget=0;fillColor=none;points=[[0,0.5],[1,0.5]];portConstraint=eastwest;fontSize=16;" vertex="1" parent="39">
                    <mxGeometry y="30" width="120" height="30" as="geometry"/>
                </mxCell>
                <mxCell id="46" value="" style="shape=partialRectangle;html=1;whiteSpace=wrap;connectable=0;strokeColor=inherit;overflow=hidden;fillColor=none;top=0;left=0;bottom=0;right=0;pointerEvents=1;fontSize=16;" vertex="1" parent="45">
                    <mxGeometry width="30" height="30" as="geometry">
                        <mxRectangle width="30" height="30" as="alternateBounds"/>
                    </mxGeometry>
                </mxCell>
                <mxCell id="47" style="shape=partialRectangle;html=1;whiteSpace=wrap;connectable=0;strokeColor=inherit;overflow=hidden;fillColor=none;top=0;left=0;bottom=0;right=0;pointerEvents=1;fontSize=16;" vertex="1" parent="45">
                    <mxGeometry x="30" width="30" height="30" as="geometry">
                        <mxRectangle width="30" height="30" as="alternateBounds"/>
                    </mxGeometry>
                </mxCell>
                <mxCell id="48" style="shape=partialRectangle;html=1;whiteSpace=wrap;connectable=0;strokeColor=inherit;overflow=hidden;fillColor=#0066CC;top=0;left=0;bottom=0;right=0;pointerEvents=1;fontSize=16;sketch=1;curveFitting=1;jiggle=2;" vertex="1" parent="45">
                    <mxGeometry x="60" width="30" height="30" as="geometry">
                        <mxRectangle width="30" height="30" as="alternateBounds"/>
                    </mxGeometry>
                </mxCell>
                <mxCell id="49" style="shape=partialRectangle;html=1;whiteSpace=wrap;connectable=0;strokeColor=inherit;overflow=hidden;fillColor=none;top=0;left=0;bottom=0;right=0;pointerEvents=1;fontSize=16;" vertex="1" parent="45">
                    <mxGeometry x="90" width="30" height="30" as="geometry">
                        <mxRectangle width="30" height="30" as="alternateBounds"/>
                    </mxGeometry>
                </mxCell>
                <mxCell id="50" value="" style="curved=1;endArrow=classic;html=1;entryX=1.003;entryY=-0.033;entryDx=0;entryDy=0;entryPerimeter=0;exitX=0.274;exitY=1.005;exitDx=0;exitDy=0;exitPerimeter=0;strokeWidth=2;strokeColor=#00CCCC;" edge="1" parent="1" source="6" target="45">
                    <mxGeometry width="50" height="50" relative="1" as="geometry">
                        <mxPoint x="130" y="490" as="sourcePoint"/>
                        <mxPoint x="180" y="440" as="targetPoint"/>
                        <Array as="points">
                            <mxPoint x="240" y="440"/>
                            <mxPoint x="180" y="360"/>
                        </Array>
                    </mxGeometry>
                </mxCell>
                <mxCell id="51" value="read" style="edgeLabel;html=1;align=center;verticalAlign=middle;resizable=0;points=[];" vertex="1" connectable="0" parent="50">
                    <mxGeometry x="-0.2306" y="-2" relative="1" as="geometry">
                        <mxPoint as="offset"/>
                    </mxGeometry>
                </mxCell>
                <mxCell id="57" value="" style="shape=table;startSize=0;container=1;collapsible=0;childLayout=tableLayout;fontSize=16;strokeWidth=2;" vertex="1" parent="1">
                    <mxGeometry x="930" y="90" width="180" height="60" as="geometry"/>
                </mxCell>
                <mxCell id="58" value="" style="shape=tableRow;horizontal=0;startSize=0;swimlaneHead=0;swimlaneBody=0;strokeColor=inherit;top=0;left=0;bottom=0;right=0;collapsible=0;dropTarget=0;fillColor=none;points=[[0,0.5],[1,0.5]];portConstraint=eastwest;fontSize=16;" vertex="1" parent="57">
                    <mxGeometry width="180" height="30" as="geometry"/>
                </mxCell>
                <mxCell id="59" value="" style="shape=partialRectangle;html=1;whiteSpace=wrap;connectable=0;strokeColor=inherit;overflow=hidden;fillColor=none;top=0;left=0;bottom=0;right=0;pointerEvents=1;fontSize=16;" vertex="1" parent="58">
                    <mxGeometry width="30" height="30" as="geometry">
                        <mxRectangle width="30" height="30" as="alternateBounds"/>
                    </mxGeometry>
                </mxCell>
                <mxCell id="60" style="shape=partialRectangle;html=1;whiteSpace=wrap;connectable=0;strokeColor=inherit;overflow=hidden;fillColor=#FFCC99;top=0;left=0;bottom=0;right=0;pointerEvents=1;fontSize=16;sketch=1;curveFitting=1;jiggle=2;" vertex="1" parent="58">
                    <mxGeometry x="30" width="30" height="30" as="geometry">
                        <mxRectangle width="30" height="30" as="alternateBounds"/>
                    </mxGeometry>
                </mxCell>
                <mxCell id="61" style="shape=partialRectangle;html=1;whiteSpace=wrap;connectable=0;strokeColor=inherit;overflow=hidden;fillColor=none;top=0;left=0;bottom=0;right=0;pointerEvents=1;fontSize=16;" vertex="1" parent="58">
                    <mxGeometry x="60" width="30" height="30" as="geometry">
                        <mxRectangle width="30" height="30" as="alternateBounds"/>
                    </mxGeometry>
                </mxCell>
                <mxCell id="62" style="shape=partialRectangle;html=1;whiteSpace=wrap;connectable=0;strokeColor=inherit;overflow=hidden;fillColor=none;top=0;left=0;bottom=0;right=0;pointerEvents=1;fontSize=16;" vertex="1" parent="58">
                    <mxGeometry x="90" width="30" height="30" as="geometry">
                        <mxRectangle width="30" height="30" as="alternateBounds"/>
                    </mxGeometry>
                </mxCell>
                <mxCell id="63" style="shape=partialRectangle;html=1;whiteSpace=wrap;connectable=0;strokeColor=inherit;overflow=hidden;fillColor=none;top=0;left=0;bottom=0;right=0;pointerEvents=1;fontSize=16;" vertex="1" parent="58">
                    <mxGeometry x="120" width="30" height="30" as="geometry">
                        <mxRectangle width="30" height="30" as="alternateBounds"/>
                    </mxGeometry>
                </mxCell>
                <mxCell id="64" style="shape=partialRectangle;html=1;whiteSpace=wrap;connectable=0;strokeColor=inherit;overflow=hidden;fillColor=none;top=0;left=0;bottom=0;right=0;pointerEvents=1;fontSize=16;" vertex="1" parent="58">
                    <mxGeometry x="150" width="30" height="30" as="geometry">
                        <mxRectangle width="30" height="30" as="alternateBounds"/>
                    </mxGeometry>
                </mxCell>
                <mxCell id="65" style="shape=tableRow;horizontal=0;startSize=0;swimlaneHead=0;swimlaneBody=0;strokeColor=inherit;top=0;left=0;bottom=0;right=0;collapsible=0;dropTarget=0;fillColor=none;points=[[0,0.5],[1,0.5]];portConstraint=eastwest;fontSize=16;" vertex="1" parent="57">
                    <mxGeometry y="30" width="180" height="30" as="geometry"/>
                </mxCell>
                <mxCell id="66" style="shape=partialRectangle;html=1;whiteSpace=wrap;connectable=0;strokeColor=inherit;overflow=hidden;fillColor=none;top=0;left=0;bottom=0;right=0;pointerEvents=1;fontSize=16;" vertex="1" parent="65">
                    <mxGeometry width="30" height="30" as="geometry">
                        <mxRectangle width="30" height="30" as="alternateBounds"/>
                    </mxGeometry>
                </mxCell>
                <mxCell id="67" style="shape=partialRectangle;html=1;whiteSpace=wrap;connectable=0;strokeColor=inherit;overflow=hidden;fillColor=#004C99;top=0;left=0;bottom=0;right=0;pointerEvents=1;fontSize=16;sketch=1;curveFitting=1;jiggle=2;" vertex="1" parent="65">
                    <mxGeometry x="30" width="30" height="30" as="geometry">
                        <mxRectangle width="30" height="30" as="alternateBounds"/>
                    </mxGeometry>
                </mxCell>
                <mxCell id="68" style="shape=partialRectangle;html=1;whiteSpace=wrap;connectable=0;strokeColor=inherit;overflow=hidden;fillColor=none;top=0;left=0;bottom=0;right=0;pointerEvents=1;fontSize=16;" vertex="1" parent="65">
                    <mxGeometry x="60" width="30" height="30" as="geometry">
                        <mxRectangle width="30" height="30" as="alternateBounds"/>
                    </mxGeometry>
                </mxCell>
                <mxCell id="69" style="shape=partialRectangle;html=1;whiteSpace=wrap;connectable=0;strokeColor=inherit;overflow=hidden;fillColor=none;top=0;left=0;bottom=0;right=0;pointerEvents=1;fontSize=16;" vertex="1" parent="65">
                    <mxGeometry x="90" width="30" height="30" as="geometry">
                        <mxRectangle width="30" height="30" as="alternateBounds"/>
                    </mxGeometry>
                </mxCell>
                <mxCell id="70" style="shape=partialRectangle;html=1;whiteSpace=wrap;connectable=0;strokeColor=inherit;overflow=hidden;fillColor=none;top=0;left=0;bottom=0;right=0;pointerEvents=1;fontSize=16;" vertex="1" parent="65">
                    <mxGeometry x="120" width="30" height="30" as="geometry">
                        <mxRectangle width="30" height="30" as="alternateBounds"/>
                    </mxGeometry>
                </mxCell>
                <mxCell id="71" style="shape=partialRectangle;html=1;whiteSpace=wrap;connectable=0;strokeColor=inherit;overflow=hidden;fillColor=none;top=0;left=0;bottom=0;right=0;pointerEvents=1;fontSize=16;" vertex="1" parent="65">
                    <mxGeometry x="150" width="30" height="30" as="geometry">
                        <mxRectangle width="30" height="30" as="alternateBounds"/>
                    </mxGeometry>
                </mxCell>
                <mxCell id="86" value="" style="curved=1;endArrow=openThin;html=1;entryX=0.243;entryY=-0.033;entryDx=0;entryDy=0;entryPerimeter=0;exitX=1;exitY=0.5;exitDx=0;exitDy=0;endFill=0;strokeWidth=2;" edge="1" parent="1" source="87" target="58">
                    <mxGeometry width="50" height="50" relative="1" as="geometry">
                        <mxPoint x="840" y="-20" as="sourcePoint"/>
                        <mxPoint x="890" y="-70" as="targetPoint"/>
                        <Array as="points">
                            <mxPoint x="930" y="50"/>
                            <mxPoint x="974" y="70"/>
                        </Array>
                    </mxGeometry>
                </mxCell>
                <mxCell id="87" value="(property id, area id)" style="text;html=1;align=center;verticalAlign=middle;whiteSpace=wrap;rounded=0;" vertex="1" parent="1">
                    <mxGeometry x="820" y="40" width="60" height="30" as="geometry"/>
                </mxCell>
                <mxCell id="89" value="" style="curved=1;endArrow=openThin;html=1;endFill=0;entryX=0.511;entryY=0.933;entryDx=0;entryDy=0;entryPerimeter=0;strokeWidth=2;exitX=0.5;exitY=1;exitDx=0;exitDy=0;" edge="1" parent="1" source="228" target="223">
                    <mxGeometry width="50" height="50" relative="1" as="geometry">
                        <mxPoint x="1090" y="260" as="sourcePoint"/>
                        <mxPoint x="1130" y="190" as="targetPoint"/>
                        <Array as="points">
                            <mxPoint x="1260" y="210"/>
                            <mxPoint x="1200" y="220"/>
                        </Array>
                    </mxGeometry>
                </mxCell>
                <mxCell id="90" value="callback" style="text;html=1;align=center;verticalAlign=middle;whiteSpace=wrap;rounded=0;" vertex="1" parent="1">
                    <mxGeometry x="990" y="20" width="60" height="30" as="geometry"/>
                </mxCell>
                <mxCell id="91" value="" style="curved=1;endArrow=openThin;html=1;exitX=0.433;exitY=0.1;exitDx=0;exitDy=0;entryX=0.5;entryY=1;entryDx=0;entryDy=0;endFill=0;strokeWidth=2;exitPerimeter=0;" edge="1" parent="1" source="106" target="90">
                    <mxGeometry width="50" height="50" relative="1" as="geometry">
                        <mxPoint x="1170" y="90" as="sourcePoint"/>
                        <mxPoint x="1274" y="180" as="targetPoint"/>
                        <Array as="points">
                            <mxPoint x="1180" y="130"/>
                            <mxPoint x="1190" y="100"/>
                            <mxPoint x="1170" y="70"/>
                            <mxPoint x="1020" y="80"/>
                        </Array>
                    </mxGeometry>
                </mxCell>
                <mxCell id="100" value="" style="shape=table;startSize=0;container=1;collapsible=0;childLayout=tableLayout;fontSize=16;strokeWidth=2;" vertex="1" parent="1">
                    <mxGeometry x="555" y="-40" width="90" height="30" as="geometry"/>
                </mxCell>
                <mxCell id="101" value="" style="shape=tableRow;horizontal=0;startSize=0;swimlaneHead=0;swimlaneBody=0;strokeColor=inherit;top=0;left=0;bottom=0;right=0;collapsible=0;dropTarget=0;fillColor=none;points=[[0,0.5],[1,0.5]];portConstraint=eastwest;fontSize=16;" vertex="1" parent="100">
                    <mxGeometry width="90" height="30" as="geometry"/>
                </mxCell>
                <mxCell id="102" value="" style="shape=partialRectangle;html=1;whiteSpace=wrap;connectable=0;strokeColor=inherit;overflow=hidden;fillColor=none;top=0;left=0;bottom=0;right=0;pointerEvents=1;fontSize=16;" vertex="1" parent="101">
                    <mxGeometry width="30" height="30" as="geometry">
                        <mxRectangle width="30" height="30" as="alternateBounds"/>
                    </mxGeometry>
                </mxCell>
                <mxCell id="103" style="shape=partialRectangle;html=1;whiteSpace=wrap;connectable=0;strokeColor=inherit;overflow=hidden;fillColor=#004C99;top=0;left=0;bottom=0;right=0;pointerEvents=1;fontSize=16;sketch=1;curveFitting=1;jiggle=2;" vertex="1" parent="101">
                    <mxGeometry x="30" width="30" height="30" as="geometry">
                        <mxRectangle width="30" height="30" as="alternateBounds"/>
                    </mxGeometry>
                </mxCell>
                <mxCell id="104" style="shape=partialRectangle;html=1;whiteSpace=wrap;connectable=0;strokeColor=inherit;overflow=hidden;fillColor=none;top=0;left=0;bottom=0;right=0;pointerEvents=1;fontSize=16;" vertex="1" parent="101">
                    <mxGeometry x="60" width="30" height="30" as="geometry">
                        <mxRectangle width="30" height="30" as="alternateBounds"/>
                    </mxGeometry>
                </mxCell>
                <mxCell id="105" value="" style="shape=table;startSize=0;container=1;collapsible=0;childLayout=tableLayout;fontSize=16;strokeWidth=2;" vertex="1" parent="1">
                    <mxGeometry x="1140" y="130" width="90" height="60" as="geometry"/>
                </mxCell>
                <mxCell id="106" value="" style="shape=tableRow;horizontal=0;startSize=0;swimlaneHead=0;swimlaneBody=0;strokeColor=inherit;top=0;left=0;bottom=0;right=0;collapsible=0;dropTarget=0;fillColor=none;points=[[0,0.5],[1,0.5]];portConstraint=eastwest;fontSize=16;" vertex="1" parent="105">
                    <mxGeometry width="90" height="30" as="geometry"/>
                </mxCell>
                <mxCell id="107" value="" style="shape=partialRectangle;html=1;whiteSpace=wrap;connectable=0;strokeColor=inherit;overflow=hidden;fillColor=none;top=0;left=0;bottom=0;right=0;pointerEvents=1;fontSize=16;" vertex="1" parent="106">
                    <mxGeometry width="30" height="30" as="geometry">
                        <mxRectangle width="30" height="30" as="alternateBounds"/>
                    </mxGeometry>
                </mxCell>
                <mxCell id="108" style="shape=partialRectangle;html=1;whiteSpace=wrap;connectable=0;strokeColor=inherit;overflow=hidden;fillColor=#99CCFF;top=0;left=0;bottom=0;right=0;pointerEvents=1;fontSize=16;sketch=1;curveFitting=1;jiggle=2;" vertex="1" parent="106">
                    <mxGeometry x="30" width="30" height="30" as="geometry">
                        <mxRectangle width="30" height="30" as="alternateBounds"/>
                    </mxGeometry>
                </mxCell>
                <mxCell id="109" style="shape=partialRectangle;html=1;whiteSpace=wrap;connectable=0;strokeColor=inherit;overflow=hidden;fillColor=none;top=0;left=0;bottom=0;right=0;pointerEvents=1;fontSize=16;" vertex="1" parent="106">
                    <mxGeometry x="60" width="30" height="30" as="geometry">
                        <mxRectangle width="30" height="30" as="alternateBounds"/>
                    </mxGeometry>
                </mxCell>
                <mxCell id="223" style="shape=tableRow;horizontal=0;startSize=0;swimlaneHead=0;swimlaneBody=0;strokeColor=inherit;top=0;left=0;bottom=0;right=0;collapsible=0;dropTarget=0;fillColor=none;points=[[0,0.5],[1,0.5]];portConstraint=eastwest;fontSize=16;" vertex="1" parent="105">
                    <mxGeometry y="30" width="90" height="30" as="geometry"/>
                </mxCell>
                <mxCell id="224" style="shape=partialRectangle;html=1;whiteSpace=wrap;connectable=0;strokeColor=inherit;overflow=hidden;fillColor=none;top=0;left=0;bottom=0;right=0;pointerEvents=1;fontSize=16;" vertex="1" parent="223">
                    <mxGeometry width="30" height="30" as="geometry">
                        <mxRectangle width="30" height="30" as="alternateBounds"/>
                    </mxGeometry>
                </mxCell>
                <mxCell id="225" style="shape=partialRectangle;html=1;whiteSpace=wrap;connectable=0;strokeColor=inherit;overflow=hidden;fillColor=#0066CC;top=0;left=0;bottom=0;right=0;pointerEvents=1;fontSize=16;sketch=1;curveFitting=1;jiggle=2;" vertex="1" parent="223">
                    <mxGeometry x="30" width="30" height="30" as="geometry">
                        <mxRectangle width="30" height="30" as="alternateBounds"/>
                    </mxGeometry>
                </mxCell>
                <mxCell id="226" style="shape=partialRectangle;html=1;whiteSpace=wrap;connectable=0;strokeColor=inherit;overflow=hidden;fillColor=none;top=0;left=0;bottom=0;right=0;pointerEvents=1;fontSize=16;" vertex="1" parent="223">
                    <mxGeometry x="60" width="30" height="30" as="geometry">
                        <mxRectangle width="30" height="30" as="alternateBounds"/>
                    </mxGeometry>
                </mxCell>
                <mxCell id="111" value="" style="endArrow=classic;html=1;entryX=0.388;entryY=1.014;entryDx=0;entryDy=0;entryPerimeter=0;exitX=0.657;exitY=-0.018;exitDx=0;exitDy=0;exitPerimeter=0;strokeWidth=2;strokeColor=#00CCCC;" edge="1" parent="1">
                    <mxGeometry width="50" height="50" relative="1" as="geometry">
                        <mxPoint x="469.9999999999999" y="465.76000000000016" as="sourcePoint"/>
                        <mxPoint x="470.7800000000001" y="399.99999999999994" as="targetPoint"/>
                    </mxGeometry>
                </mxCell>
                <mxCell id="112" value="action" style="edgeLabel;html=1;align=center;verticalAlign=middle;resizable=0;points=[];" vertex="1" connectable="0" parent="111">
                    <mxGeometry x="0.3454" y="2" relative="1" as="geometry">
                        <mxPoint as="offset"/>
                    </mxGeometry>
                </mxCell>
                <mxCell id="113" value="" style="endArrow=classic;html=1;entryX=0.388;entryY=1.014;entryDx=0;entryDy=0;entryPerimeter=0;strokeWidth=2;strokeColor=#00CCCC;" edge="1" parent="1">
                    <mxGeometry width="50" height="50" relative="1" as="geometry">
                        <mxPoint x="586" y="620" as="sourcePoint"/>
                        <mxPoint x="586" y="400" as="targetPoint"/>
                    </mxGeometry>
                </mxCell>
                <mxCell id="114" value="IVehicleCallback" style="rounded=1;whiteSpace=wrap;html=1;fontStyle=1;fontSize=14;strokeWidth=2;fillColor=#CCE5FF;" vertex="1" parent="1">
                    <mxGeometry x="420" y="-210" width="300" height="70" as="geometry"/>
                </mxCell>
                <mxCell id="115" value="" style="curved=1;endArrow=openThin;html=1;exitX=1;exitY=0.5;exitDx=0;exitDy=0;endFill=0;strokeWidth=2;entryX=1;entryY=0.5;entryDx=0;entryDy=0;" edge="1" parent="1" source="114" target="90">
                    <mxGeometry width="50" height="50" relative="1" as="geometry">
                        <mxPoint x="1040" y="-64" as="sourcePoint"/>
                        <mxPoint x="1060" y="40" as="targetPoint"/>
                        <Array as="points">
                            <mxPoint x="850" y="-200"/>
                            <mxPoint x="1160" y="-210"/>
                            <mxPoint x="1200" y="20"/>
                        </Array>
                    </mxGeometry>
                </mxCell>
                <mxCell id="116" value="" style="curved=1;endArrow=classic;html=1;entryX=0.25;entryY=0;entryDx=0;entryDy=0;exitX=0.24;exitY=0.989;exitDx=0;exitDy=0;exitPerimeter=0;strokeWidth=2;strokeColor=#FF0000;" edge="1" parent="1" source="4" target="5">
                    <mxGeometry width="50" height="50" relative="1" as="geometry">
                        <mxPoint x="622" y="20" as="sourcePoint"/>
                        <mxPoint x="-51" y="-96" as="targetPoint"/>
                        <Array as="points">
                            <mxPoint x="360" y="10"/>
                        </Array>
                    </mxGeometry>
                </mxCell>
                <mxCell id="117" value="subscribe" style="edgeLabel;html=1;align=center;verticalAlign=middle;resizable=0;points=[];" vertex="1" connectable="0" parent="116">
                    <mxGeometry x="0.1259" y="-3" relative="1" as="geometry">
                        <mxPoint as="offset"/>
                    </mxGeometry>
                </mxCell>
                <mxCell id="118" value="SubscriptionClient" style="text;html=1;align=center;verticalAlign=middle;whiteSpace=wrap;rounded=0;fontStyle=1;fontSize=14;" vertex="1" parent="1">
                    <mxGeometry x="255" y="-270" width="60" height="30" as="geometry"/>
                </mxCell>
                <mxCell id="119" value="" style="curved=1;endArrow=classic;html=1;entryX=0.25;entryY=1;entryDx=0;entryDy=0;exitX=0.5;exitY=0;exitDx=0;exitDy=0;strokeWidth=2;strokeColor=#00CCCC;" edge="1" parent="1" source="5" target="114">
                    <mxGeometry width="50" height="50" relative="1" as="geometry">
                        <mxPoint x="510" y="-105" as="sourcePoint"/>
                        <mxPoint x="510" y="77" as="targetPoint"/>
                        <Array as="points">
                            <mxPoint x="540" y="30"/>
                        </Array>
                    </mxGeometry>
                </mxCell>
                <mxCell id="121" value="VehiclePropertyStore" style="text;html=1;align=center;verticalAlign=middle;whiteSpace=wrap;rounded=0;fontStyle=1;fontSize=14;" vertex="1" parent="1">
                    <mxGeometry x="-180" y="285" width="110" height="30" as="geometry"/>
                </mxCell>
                <mxCell id="124" value="" style="curved=1;endArrow=classic;html=1;exitX=0.24;exitY=0.989;exitDx=0;exitDy=0;exitPerimeter=0;strokeWidth=2;strokeColor=#FF0000;" edge="1" parent="1">
                    <mxGeometry width="50" height="50" relative="1" as="geometry">
                        <mxPoint x="390" y="398" as="sourcePoint"/>
                        <mxPoint x="394" y="470" as="targetPoint"/>
                        <Array as="points"/>
                    </mxGeometry>
                </mxCell>
                <mxCell id="125" value="register callback" style="edgeLabel;html=1;align=center;verticalAlign=middle;resizable=0;points=[];" vertex="1" connectable="0" parent="124">
                    <mxGeometry x="0.0807" y="-1" relative="1" as="geometry">
                        <mxPoint as="offset"/>
                    </mxGeometry>
                </mxCell>
                <mxCell id="131" value="" style="rounded=0;whiteSpace=wrap;html=1;sketch=1;curveFitting=1;jiggle=2;fillColor=#7F00FF;" vertex="1" parent="1">
                    <mxGeometry x="180" y="430" width="30" height="30" as="geometry"/>
                </mxCell>
                <mxCell id="132" value="" style="rounded=0;whiteSpace=wrap;html=1;sketch=1;curveFitting=1;jiggle=2;fillColor=#7F00FF;" vertex="1" parent="1">
                    <mxGeometry x="300" y="430" width="30" height="30" as="geometry"/>
                </mxCell>
                <mxCell id="135" value="" style="endArrow=async;html=1;endFill=1;" edge="1" parent="1">
                    <mxGeometry width="50" height="50" relative="1" as="geometry">
                        <mxPoint x="180" y="420" as="sourcePoint"/>
                        <mxPoint x="210" y="420" as="targetPoint"/>
                    </mxGeometry>
                </mxCell>
                <mxCell id="136" value="" style="endArrow=async;html=1;endFill=1;" edge="1" parent="1">
                    <mxGeometry width="50" height="50" relative="1" as="geometry">
                        <mxPoint x="300" y="420" as="sourcePoint"/>
                        <mxPoint x="330" y="420" as="targetPoint"/>
                    </mxGeometry>
                </mxCell>
                <mxCell id="139" value="mClientsByPropIdArea" style="text;html=1;align=center;verticalAlign=middle;whiteSpace=wrap;rounded=0;fontStyle=1" vertex="1" parent="1">
                    <mxGeometry x="790" y="105" width="120" height="30" as="geometry"/>
                </mxCell>
                <mxCell id="140" value="SubscriptoinManager" style="text;html=1;align=center;verticalAlign=middle;whiteSpace=wrap;rounded=0;fontSize=14;fontStyle=1" vertex="1" parent="1">
                    <mxGeometry x="790" y="-100" width="140" height="30" as="geometry"/>
                </mxCell>
                <mxCell id="141" value="" style="curved=1;endArrow=classic;html=1;entryX=-0.006;entryY=0.332;entryDx=0;entryDy=0;entryPerimeter=0;exitX=0.75;exitY=0;exitDx=0;exitDy=0;strokeWidth=2;strokeColor=#00CCCC;" edge="1" parent="1" source="5" target="8">
                    <mxGeometry width="50" height="50" relative="1" as="geometry">
                        <mxPoint x="90" y="50" as="sourcePoint"/>
                        <mxPoint x="140" as="targetPoint"/>
                        <Array as="points">
                            <mxPoint x="620" y="50"/>
                            <mxPoint x="670" y="20"/>
                        </Array>
                    </mxGeometry>
                </mxCell>
                <mxCell id="250" value="getSubscribedClients" style="edgeLabel;html=1;align=center;verticalAlign=middle;resizable=0;points=[];" vertex="1" connectable="0" parent="141">
                    <mxGeometry x="0.098" y="-7" relative="1" as="geometry">
                        <mxPoint x="17" y="-17" as="offset"/>
                    </mxGeometry>
                </mxCell>
                <mxCell id="143" value="" style="endArrow=none;html=1;endFill=0;startArrow=async;startFill=1;" edge="1" parent="1">
                    <mxGeometry width="50" height="50" relative="1" as="geometry">
                        <mxPoint x="530" y="-80" as="sourcePoint"/>
                        <mxPoint x="640" y="-50" as="targetPoint"/>
                        <Array as="points">
                            <mxPoint x="580" y="-50"/>
                        </Array>
                    </mxGeometry>
                </mxCell>
                <mxCell id="144" value="" style="shape=table;startSize=0;container=1;collapsible=0;childLayout=tableLayout;fontSize=16;strokeWidth=2;" vertex="1" parent="1">
                    <mxGeometry x="555" width="20" height="40" as="geometry"/>
                </mxCell>
                <mxCell id="145" value="" style="shape=tableRow;horizontal=0;startSize=0;swimlaneHead=0;swimlaneBody=0;strokeColor=inherit;top=0;left=0;bottom=0;right=0;collapsible=0;dropTarget=0;fillColor=none;points=[[0,0.5],[1,0.5]];portConstraint=eastwest;fontSize=16;" vertex="1" parent="144">
                    <mxGeometry width="20" height="20" as="geometry"/>
                </mxCell>
                <mxCell id="146" value="" style="shape=partialRectangle;html=1;whiteSpace=wrap;connectable=0;strokeColor=inherit;overflow=hidden;fillColor=#7F00FF;top=0;left=0;bottom=0;right=0;pointerEvents=1;fontSize=16;sketch=1;curveFitting=1;jiggle=2;" vertex="1" parent="145">
                    <mxGeometry width="20" height="20" as="geometry">
                        <mxRectangle width="20" height="20" as="alternateBounds"/>
                    </mxGeometry>
                </mxCell>
                <mxCell id="147" style="shape=tableRow;horizontal=0;startSize=0;swimlaneHead=0;swimlaneBody=0;strokeColor=inherit;top=0;left=0;bottom=0;right=0;collapsible=0;dropTarget=0;fillColor=#7F00FF;points=[[0,0.5],[1,0.5]];portConstraint=eastwest;fontSize=16;sketch=1;curveFitting=1;jiggle=2;" vertex="1" parent="144">
                    <mxGeometry y="20" width="20" height="20" as="geometry"/>
                </mxCell>
                <mxCell id="148" style="shape=partialRectangle;html=1;whiteSpace=wrap;connectable=0;strokeColor=inherit;overflow=hidden;fillColor=none;top=0;left=0;bottom=0;right=0;pointerEvents=1;fontSize=16;" vertex="1" parent="147">
                    <mxGeometry width="20" height="20" as="geometry">
                        <mxRectangle width="20" height="20" as="alternateBounds"/>
                    </mxGeometry>
                </mxCell>
                <mxCell id="149" value="" style="shape=table;startSize=0;container=1;collapsible=0;childLayout=tableLayout;fontSize=16;strokeWidth=2;" vertex="1" parent="1">
                    <mxGeometry x="590" y="1" width="20" height="60" as="geometry"/>
                </mxCell>
                <mxCell id="150" value="" style="shape=tableRow;horizontal=0;startSize=0;swimlaneHead=0;swimlaneBody=0;strokeColor=inherit;top=0;left=0;bottom=0;right=0;collapsible=0;dropTarget=0;fillColor=none;points=[[0,0.5],[1,0.5]];portConstraint=eastwest;fontSize=16;" vertex="1" parent="149">
                    <mxGeometry width="20" height="20" as="geometry"/>
                </mxCell>
                <mxCell id="151" value="" style="shape=partialRectangle;html=1;whiteSpace=wrap;connectable=0;strokeColor=inherit;overflow=hidden;fillColor=#7F00FF;top=0;left=0;bottom=0;right=0;pointerEvents=1;fontSize=16;sketch=1;curveFitting=1;jiggle=2;" vertex="1" parent="150">
                    <mxGeometry width="20" height="20" as="geometry">
                        <mxRectangle width="20" height="20" as="alternateBounds"/>
                    </mxGeometry>
                </mxCell>
                <mxCell id="152" style="shape=tableRow;horizontal=0;startSize=0;swimlaneHead=0;swimlaneBody=0;strokeColor=inherit;top=0;left=0;bottom=0;right=0;collapsible=0;dropTarget=0;fillColor=none;points=[[0,0.5],[1,0.5]];portConstraint=eastwest;fontSize=16;" vertex="1" parent="149">
                    <mxGeometry y="20" width="20" height="20" as="geometry"/>
                </mxCell>
                <mxCell id="153" style="shape=partialRectangle;html=1;whiteSpace=wrap;connectable=0;strokeColor=inherit;overflow=hidden;fillColor=#7F00FF;top=0;left=0;bottom=0;right=0;pointerEvents=1;fontSize=16;sketch=1;curveFitting=1;jiggle=2;" vertex="1" parent="152">
                    <mxGeometry width="20" height="20" as="geometry">
                        <mxRectangle width="20" height="20" as="alternateBounds"/>
                    </mxGeometry>
                </mxCell>
                <mxCell id="154" style="shape=tableRow;horizontal=0;startSize=0;swimlaneHead=0;swimlaneBody=0;strokeColor=inherit;top=0;left=0;bottom=0;right=0;collapsible=0;dropTarget=0;fillColor=none;points=[[0,0.5],[1,0.5]];portConstraint=eastwest;fontSize=16;" vertex="1" parent="149">
                    <mxGeometry y="40" width="20" height="20" as="geometry"/>
                </mxCell>
                <mxCell id="155" style="shape=partialRectangle;html=1;whiteSpace=wrap;connectable=0;strokeColor=inherit;overflow=hidden;fillColor=#7F00FF;top=0;left=0;bottom=0;right=0;pointerEvents=1;fontSize=16;sketch=1;curveFitting=1;jiggle=2;" vertex="1" parent="154">
                    <mxGeometry width="20" height="20" as="geometry">
                        <mxRectangle width="20" height="20" as="alternateBounds"/>
                    </mxGeometry>
                </mxCell>
                <mxCell id="156" value="" style="shape=table;startSize=0;container=1;collapsible=0;childLayout=tableLayout;fontSize=16;fillColor=none;swimlaneLine=1;strokeWidth=2;" vertex="1" parent="1">
                    <mxGeometry x="625" width="20" height="20" as="geometry"/>
                </mxCell>
                <mxCell id="157" value="" style="shape=tableRow;horizontal=0;startSize=0;swimlaneHead=0;swimlaneBody=0;strokeColor=inherit;top=0;left=0;bottom=0;right=0;collapsible=0;dropTarget=0;fillColor=none;points=[[0,0.5],[1,0.5]];portConstraint=eastwest;fontSize=16;" vertex="1" parent="156">
                    <mxGeometry width="20" height="20" as="geometry"/>
                </mxCell>
                <mxCell id="158" value="" style="shape=partialRectangle;html=1;whiteSpace=wrap;connectable=0;strokeColor=inherit;overflow=hidden;fillColor=#6600CC;top=0;left=0;bottom=0;right=0;pointerEvents=1;fontSize=16;sketch=1;curveFitting=1;jiggle=2;" vertex="1" parent="157">
                    <mxGeometry width="20" height="20" as="geometry">
                        <mxRectangle width="20" height="20" as="alternateBounds"/>
                    </mxGeometry>
                </mxCell>
                <mxCell id="159" value="" style="curved=1;endArrow=openThin;html=1;entryX=0.558;entryY=-0.008;entryDx=0;entryDy=0;entryPerimeter=0;exitX=0.17;exitY=1.022;exitDx=0;exitDy=0;endFill=0;strokeWidth=2;exitPerimeter=0;endSize=2;" edge="1" parent="1" source="101" target="145">
                    <mxGeometry width="50" height="50" relative="1" as="geometry">
                        <mxPoint x="560" y="-14" as="sourcePoint"/>
                        <mxPoint x="654" y="20" as="targetPoint"/>
                        <Array as="points"/>
                    </mxGeometry>
                </mxCell>
                <mxCell id="160" value="" style="curved=1;endArrow=openThin;html=1;entryX=0.438;entryY=-0.007;entryDx=0;entryDy=0;entryPerimeter=0;exitX=0.492;exitY=1.013;exitDx=0;exitDy=0;endFill=0;strokeWidth=2;exitPerimeter=0;endSize=2;" edge="1" parent="1" source="101" target="150">
                    <mxGeometry width="50" height="50" relative="1" as="geometry">
                        <mxPoint x="580" y="1" as="sourcePoint"/>
                        <mxPoint x="576" y="10" as="targetPoint"/>
                        <Array as="points"/>
                    </mxGeometry>
                </mxCell>
                <mxCell id="161" value="" style="curved=1;endArrow=openThin;html=1;entryX=0.45;entryY=-0.052;entryDx=0;entryDy=0;entryPerimeter=0;exitX=0.857;exitY=0.965;exitDx=0;exitDy=0;endFill=0;strokeWidth=2;exitPerimeter=0;endSize=2;" edge="1" parent="1" source="101" target="157">
                    <mxGeometry width="50" height="50" relative="1" as="geometry">
                        <mxPoint x="590" y="11" as="sourcePoint"/>
                        <mxPoint x="586" y="20" as="targetPoint"/>
                        <Array as="points"/>
                    </mxGeometry>
                </mxCell>
                <mxCell id="162" value="" style="curved=1;endArrow=openThin;html=1;entryX=0.825;entryY=0.013;entryDx=0;entryDy=0;entryPerimeter=0;endFill=0;strokeWidth=2;endSize=2;exitX=0;exitY=1;exitDx=0;exitDy=0;" edge="1" parent="1" source="163" target="101">
                    <mxGeometry width="50" height="50" relative="1" as="geometry">
                        <mxPoint x="680" y="-10" as="sourcePoint"/>
                        <mxPoint x="609" y="11" as="targetPoint"/>
                        <Array as="points">
                            <mxPoint x="650" y="-60"/>
                        </Array>
                    </mxGeometry>
                </mxCell>
                <mxCell id="163" value="updatedValuesByClients" style="text;html=1;align=center;verticalAlign=middle;whiteSpace=wrap;rounded=0;" vertex="1" parent="1">
                    <mxGeometry x="680" y="-90" width="60" height="30" as="geometry"/>
                </mxCell>
                <mxCell id="164" value="values" style="text;html=1;align=center;verticalAlign=middle;whiteSpace=wrap;rounded=0;" vertex="1" parent="1">
                    <mxGeometry x="530" y="40" width="60" height="30" as="geometry"/>
                </mxCell>
                <mxCell id="169" value="continuous" style="text;html=1;align=center;verticalAlign=middle;whiteSpace=wrap;rounded=0;fontStyle=3;fontSize=13;" vertex="1" parent="1">
                    <mxGeometry x="355" y="750" width="60" height="30" as="geometry"/>
                </mxCell>
                <mxCell id="170" value="onchange" style="text;html=1;align=center;verticalAlign=middle;whiteSpace=wrap;rounded=0;fontStyle=3;fontSize=13;" vertex="1" parent="1">
                    <mxGeometry x="585" y="750" width="60" height="30" as="geometry"/>
                </mxCell>
                <mxCell id="172" value="" style="curved=1;endArrow=classic;html=1;entryX=0.002;entryY=0.622;entryDx=0;entryDy=0;exitX=0.75;exitY=1;exitDx=0;exitDy=0;strokeWidth=2;strokeColor=#FF0000;entryPerimeter=0;" edge="1" parent="1" target="8">
                    <mxGeometry width="50" height="50" relative="1" as="geometry">
                        <mxPoint x="625" y="170" as="sourcePoint"/>
                        <mxPoint x="792.5" y="170" as="targetPoint"/>
                        <Array as="points">
                            <mxPoint x="660" y="210"/>
                        </Array>
                    </mxGeometry>
                </mxCell>
                <mxCell id="220" value="subscribe" style="edgeLabel;html=1;align=center;verticalAlign=middle;resizable=0;points=[];" vertex="1" connectable="0" parent="172">
                    <mxGeometry x="0.3898" y="20" relative="1" as="geometry">
                        <mxPoint x="-7" y="3" as="offset"/>
                    </mxGeometry>
                </mxCell>
                <mxCell id="173" value="" style="curved=1;endArrow=classic;html=1;strokeWidth=2;strokeColor=#FF0000;" edge="1" parent="1">
                    <mxGeometry width="50" height="50" relative="1" as="geometry">
                        <mxPoint x="920" y="585" as="sourcePoint"/>
                        <mxPoint x="1000" y="585" as="targetPoint"/>
                        <Array as="points"/>
                    </mxGeometry>
                </mxCell>
                <mxCell id="174" value="" style="endArrow=classic;html=1;strokeWidth=2;strokeColor=#00CCCC;" edge="1" parent="1">
                    <mxGeometry width="50" height="50" relative="1" as="geometry">
                        <mxPoint x="1000" y="655" as="sourcePoint"/>
                        <mxPoint x="920" y="655" as="targetPoint"/>
                        <Array as="points"/>
                    </mxGeometry>
                </mxCell>
                <mxCell id="175" value="订阅路径" style="text;html=1;align=center;verticalAlign=middle;whiteSpace=wrap;rounded=0;fontFamily=Comic Sans MS;" vertex="1" parent="1">
                    <mxGeometry x="1020" y="565" width="60" height="30" as="geometry"/>
                </mxCell>
                <mxCell id="176" value="回调路径" style="text;html=1;align=center;verticalAlign=middle;whiteSpace=wrap;rounded=0;fontFamily=Comic Sans MS;" vertex="1" parent="1">
                    <mxGeometry x="1020" y="635" width="60" height="30" as="geometry"/>
                </mxCell>
                <mxCell id="184" style="edgeStyle=none;html=1;exitX=0;exitY=0.5;exitDx=0;exitDy=0;entryX=0.75;entryY=0;entryDx=0;entryDy=0;endArrow=none;endFill=0;" edge="1" parent="1" source="178" target="179">
                    <mxGeometry relative="1" as="geometry"/>
                </mxCell>
                <mxCell id="185" style="edgeStyle=none;html=1;entryX=0.5;entryY=0;entryDx=0;entryDy=0;endArrow=none;endFill=0;exitX=1;exitY=0.5;exitDx=0;exitDy=0;" edge="1" parent="1" source="178" target="180">
                    <mxGeometry relative="1" as="geometry">
                        <mxPoint x="390" y="570" as="sourcePoint"/>
                    </mxGeometry>
                </mxCell>
                <mxCell id="178" value="" style="rounded=0;whiteSpace=wrap;html=1;sketch=1;curveFitting=1;jiggle=2;fillColor=#009900;" vertex="1" parent="1">
                    <mxGeometry x="370" y="555" width="30" height="30" as="geometry"/>
                </mxCell>
                <mxCell id="186" style="edgeStyle=none;html=1;exitX=0.5;exitY=1;exitDx=0;exitDy=0;entryX=0.5;entryY=0;entryDx=0;entryDy=0;endArrow=none;endFill=0;" edge="1" parent="1" source="179" target="181">
                    <mxGeometry relative="1" as="geometry"/>
                </mxCell>
                <mxCell id="187" style="edgeStyle=none;html=1;exitX=0.5;exitY=1;exitDx=0;exitDy=0;entryX=0.75;entryY=0;entryDx=0;entryDy=0;endArrow=none;endFill=0;" edge="1" parent="1" source="179" target="182">
                    <mxGeometry relative="1" as="geometry"/>
                </mxCell>
                <mxCell id="179" value="" style="rounded=0;whiteSpace=wrap;html=1;sketch=1;curveFitting=1;jiggle=2;fillColor=#009900;" vertex="1" parent="1">
                    <mxGeometry x="310" y="595" width="30" height="30" as="geometry"/>
                </mxCell>
                <mxCell id="188" style="edgeStyle=none;html=1;exitX=0.5;exitY=1;exitDx=0;exitDy=0;entryX=0.5;entryY=0;entryDx=0;entryDy=0;endArrow=none;endFill=0;" edge="1" parent="1" source="180" target="183">
                    <mxGeometry relative="1" as="geometry"/>
                </mxCell>
                <mxCell id="180" value="" style="rounded=0;whiteSpace=wrap;html=1;sketch=1;curveFitting=1;jiggle=2;fillColor=#009900;" vertex="1" parent="1">
                    <mxGeometry x="425" y="595" width="30" height="30" as="geometry"/>
                </mxCell>
                <mxCell id="181" value="" style="rounded=0;whiteSpace=wrap;html=1;sketch=1;curveFitting=1;jiggle=2;fillColor=#009900;" vertex="1" parent="1">
                    <mxGeometry x="270" y="655" width="30" height="30" as="geometry"/>
                </mxCell>
                <mxCell id="182" value="" style="rounded=0;whiteSpace=wrap;html=1;sketch=1;curveFitting=1;jiggle=2;fillColor=#009900;" vertex="1" parent="1">
                    <mxGeometry x="350" y="655" width="30" height="30" as="geometry"/>
                </mxCell>
                <mxCell id="183" value="" style="rounded=0;whiteSpace=wrap;html=1;sketch=1;curveFitting=1;jiggle=2;fillColor=#009900;" vertex="1" parent="1">
                    <mxGeometry x="400" y="655" width="30" height="30" as="geometry"/>
                </mxCell>
                <mxCell id="189" value="" style="curved=1;endArrow=classic;html=1;entryX=0.867;entryY=-0.1;entryDx=0;entryDy=0;entryPerimeter=0;exitX=0;exitY=0.5;exitDx=0;exitDy=0;strokeWidth=2;strokeColor=#00CCCC;" edge="1" parent="1" source="6" target="40">
                    <mxGeometry width="50" height="50" relative="1" as="geometry">
                        <mxPoint x="380" y="411" as="sourcePoint"/>
                        <mxPoint x="140" y="359" as="targetPoint"/>
                        <Array as="points">
                            <mxPoint x="190" y="300"/>
                        </Array>
                    </mxGeometry>
                </mxCell>
                <mxCell id="190" value="write" style="edgeLabel;html=1;align=center;verticalAlign=middle;resizable=0;points=[];labelBackgroundColor=none;" vertex="1" connectable="0" parent="189">
                    <mxGeometry x="-0.2306" y="-2" relative="1" as="geometry">
                        <mxPoint x="-15" as="offset"/>
                    </mxGeometry>
                </mxCell>
                <mxCell id="191" value="" style="curved=1;endArrow=openThin;html=1;entryX=0.243;entryY=-0.033;entryDx=0;entryDy=0;entryPerimeter=0;exitX=1;exitY=0.5;exitDx=0;exitDy=0;endFill=0;strokeWidth=2;" edge="1" parent="1" source="192">
                    <mxGeometry width="50" height="50" relative="1" as="geometry">
                        <mxPoint x="-160" y="255" as="sourcePoint"/>
                        <mxPoint x="-26" y="364" as="targetPoint"/>
                        <Array as="points">
                            <mxPoint x="-70" y="325"/>
                            <mxPoint x="-26" y="345"/>
                        </Array>
                    </mxGeometry>
                </mxCell>
                <mxCell id="192" value="property id" style="text;html=1;align=center;verticalAlign=middle;whiteSpace=wrap;rounded=0;" vertex="1" parent="1">
                    <mxGeometry x="-180" y="315" width="60" height="30" as="geometry"/>
                </mxCell>
                <mxCell id="193" value="" style="shape=table;startSize=0;container=1;collapsible=0;childLayout=tableLayout;fontSize=16;strokeWidth=2;" vertex="1" parent="1">
                    <mxGeometry x="10" y="520" width="120" height="60" as="geometry"/>
                </mxCell>
                <mxCell id="194" value="" style="shape=tableRow;horizontal=0;startSize=0;swimlaneHead=0;swimlaneBody=0;strokeColor=inherit;top=0;left=0;bottom=0;right=0;collapsible=0;dropTarget=0;fillColor=none;points=[[0,0.5],[1,0.5]];portConstraint=eastwest;fontSize=16;" vertex="1" parent="193">
                    <mxGeometry width="120" height="30" as="geometry"/>
                </mxCell>
                <mxCell id="195" value="" style="shape=partialRectangle;html=1;whiteSpace=wrap;connectable=0;strokeColor=inherit;overflow=hidden;fillColor=none;top=0;left=0;bottom=0;right=0;pointerEvents=1;fontSize=16;" vertex="1" parent="194">
                    <mxGeometry width="30" height="30" as="geometry">
                        <mxRectangle width="30" height="30" as="alternateBounds"/>
                    </mxGeometry>
                </mxCell>
                <mxCell id="196" style="shape=partialRectangle;html=1;whiteSpace=wrap;connectable=0;strokeColor=inherit;overflow=hidden;fillColor=#FFE6CC;top=0;left=0;bottom=0;right=0;pointerEvents=1;fontSize=16;sketch=1;curveFitting=1;jiggle=2;" vertex="1" parent="194">
                    <mxGeometry x="30" width="30" height="30" as="geometry">
                        <mxRectangle width="30" height="30" as="alternateBounds"/>
                    </mxGeometry>
                </mxCell>
                <mxCell id="197" style="shape=partialRectangle;html=1;whiteSpace=wrap;connectable=0;strokeColor=inherit;overflow=hidden;fillColor=none;top=0;left=0;bottom=0;right=0;pointerEvents=1;fontSize=16;" vertex="1" parent="194">
                    <mxGeometry x="60" width="30" height="30" as="geometry">
                        <mxRectangle width="30" height="30" as="alternateBounds"/>
                    </mxGeometry>
                </mxCell>
                <mxCell id="198" style="shape=partialRectangle;html=1;whiteSpace=wrap;connectable=0;strokeColor=inherit;overflow=hidden;fillColor=none;top=0;left=0;bottom=0;right=0;pointerEvents=1;fontSize=16;" vertex="1" parent="194">
                    <mxGeometry x="90" width="30" height="30" as="geometry">
                        <mxRectangle width="30" height="30" as="alternateBounds"/>
                    </mxGeometry>
                </mxCell>
                <mxCell id="201" style="shape=tableRow;horizontal=0;startSize=0;swimlaneHead=0;swimlaneBody=0;strokeColor=inherit;top=0;left=0;bottom=0;right=0;collapsible=0;dropTarget=0;fillColor=none;points=[[0,0.5],[1,0.5]];portConstraint=eastwest;fontSize=16;" vertex="1" parent="193">
                    <mxGeometry y="30" width="120" height="30" as="geometry"/>
                </mxCell>
                <mxCell id="202" style="shape=partialRectangle;html=1;whiteSpace=wrap;connectable=0;strokeColor=inherit;overflow=hidden;fillColor=none;top=0;left=0;bottom=0;right=0;pointerEvents=1;fontSize=16;" vertex="1" parent="201">
                    <mxGeometry width="30" height="30" as="geometry">
                        <mxRectangle width="30" height="30" as="alternateBounds"/>
                    </mxGeometry>
                </mxCell>
                <mxCell id="203" style="shape=partialRectangle;html=1;whiteSpace=wrap;connectable=0;strokeColor=inherit;overflow=hidden;fillColor=#6600CC;top=0;left=0;bottom=0;right=0;pointerEvents=1;fontSize=16;sketch=1;curveFitting=1;jiggle=2;" vertex="1" parent="201">
                    <mxGeometry x="30" width="30" height="30" as="geometry">
                        <mxRectangle width="30" height="30" as="alternateBounds"/>
                    </mxGeometry>
                </mxCell>
                <mxCell id="204" style="shape=partialRectangle;html=1;whiteSpace=wrap;connectable=0;strokeColor=inherit;overflow=hidden;fillColor=none;top=0;left=0;bottom=0;right=0;pointerEvents=1;fontSize=16;" vertex="1" parent="201">
                    <mxGeometry x="60" width="30" height="30" as="geometry">
                        <mxRectangle width="30" height="30" as="alternateBounds"/>
                    </mxGeometry>
                </mxCell>
                <mxCell id="205" style="shape=partialRectangle;html=1;whiteSpace=wrap;connectable=0;strokeColor=inherit;overflow=hidden;fillColor=none;top=0;left=0;bottom=0;right=0;pointerEvents=1;fontSize=16;" vertex="1" parent="201">
                    <mxGeometry x="90" width="30" height="30" as="geometry">
                        <mxRectangle width="30" height="30" as="alternateBounds"/>
                    </mxGeometry>
                </mxCell>
                <mxCell id="208" value="property config" style="text;html=1;align=center;verticalAlign=middle;whiteSpace=wrap;rounded=0;fontStyle=0;fontSize=12;" vertex="1" parent="1">
                    <mxGeometry x="-200" y="525" width="60" height="30" as="geometry"/>
                </mxCell>
                <mxCell id="209" value="token function" style="text;html=1;align=center;verticalAlign=middle;whiteSpace=wrap;rounded=0;fontStyle=0;fontSize=12;" vertex="1" parent="1">
                    <mxGeometry x="-95" y="525" width="60" height="30" as="geometry"/>
                </mxCell>
                <mxCell id="210" value="" style="shape=curlyBracket;whiteSpace=wrap;html=1;rounded=1;flipH=1;labelPosition=right;verticalLabelPosition=middle;align=left;verticalAlign=middle;rotation=-90;strokeWidth=2;" vertex="1" parent="1">
                    <mxGeometry x="-50" y="370" width="20" height="260" as="geometry"/>
                </mxCell>
                <mxCell id="212" value="record" style="text;html=1;align=center;verticalAlign=middle;whiteSpace=wrap;rounded=0;" vertex="1" parent="1">
                    <mxGeometry x="-70" y="460" width="60" height="30" as="geometry"/>
                </mxCell>
                <mxCell id="214" value="record id : {&lt;div&gt;&amp;nbsp; area id,&lt;/div&gt;&lt;div&gt;&amp;nbsp; token&lt;/div&gt;&lt;div&gt;}&lt;/div&gt;" style="text;html=1;align=left;verticalAlign=middle;whiteSpace=wrap;rounded=0;" vertex="1" parent="1">
                    <mxGeometry x="80" y="422.5" width="70" height="65" as="geometry"/>
                </mxCell>
                <mxCell id="215" value="" style="curved=1;endArrow=openThin;html=1;entryX=0.367;entryY=-0.033;entryDx=0;entryDy=0;entryPerimeter=0;exitX=0;exitY=0.5;exitDx=0;exitDy=0;endFill=0;strokeWidth=2;" edge="1" parent="1" source="214" target="194">
                    <mxGeometry width="50" height="50" relative="1" as="geometry">
                        <mxPoint x="60" y="675" as="sourcePoint"/>
                        <mxPoint x="154" y="709" as="targetPoint"/>
                        <Array as="points">
                            <mxPoint x="60" y="470"/>
                        </Array>
                    </mxGeometry>
                </mxCell>
                <mxCell id="216" value="property value: SharedPtr" style="text;html=1;align=center;verticalAlign=middle;whiteSpace=wrap;rounded=0;" vertex="1" parent="1">
                    <mxGeometry x="40" y="650" width="90" height="30" as="geometry"/>
                </mxCell>
                <mxCell id="217" value="" style="curved=1;endArrow=openThin;html=1;entryX=0.5;entryY=0;entryDx=0;entryDy=0;exitX=0.358;exitY=0.967;exitDx=0;exitDy=0;endFill=0;strokeWidth=2;exitPerimeter=0;" edge="1" parent="1" source="201" target="216">
                    <mxGeometry width="50" height="50" relative="1" as="geometry">
                        <mxPoint x="90" y="465" as="sourcePoint"/>
                        <mxPoint x="64" y="529" as="targetPoint"/>
                        <Array as="points">
                            <mxPoint x="80" y="620"/>
                        </Array>
                    </mxGeometry>
                </mxCell>
                <mxCell id="219" value="" style="curved=1;endArrow=openThin;html=1;exitX=0.658;exitY=1.033;exitDx=0;exitDy=0;endFill=0;strokeWidth=2;exitPerimeter=0;" edge="1" parent="1" source="45" target="212">
                    <mxGeometry width="50" height="50" relative="1" as="geometry">
                        <mxPoint x="-110" y="340" as="sourcePoint"/>
                        <mxPoint x="-16" y="374" as="targetPoint"/>
                        <Array as="points">
                            <mxPoint x="-16" y="450"/>
                        </Array>
                    </mxGeometry>
                </mxCell>
                <mxCell id="221" value="" style="curved=1;endArrow=classic;html=1;entryX=0.945;entryY=0;entryDx=0;entryDy=0;strokeWidth=2;strokeColor=#FF0000;entryPerimeter=0;" edge="1" parent="1" target="6">
                    <mxGeometry width="50" height="50" relative="1" as="geometry">
                        <mxPoint x="780" y="250" as="sourcePoint"/>
                        <mxPoint x="802.5" y="180" as="targetPoint"/>
                        <Array as="points">
                            <mxPoint x="732.5" y="250"/>
                        </Array>
                    </mxGeometry>
                </mxCell>
                <mxCell id="222" value="update sample rate" style="edgeLabel;html=1;align=center;verticalAlign=middle;resizable=0;points=[];" vertex="1" connectable="0" parent="221">
                    <mxGeometry x="0.3898" y="20" relative="1" as="geometry">
                        <mxPoint x="-63" y="-24" as="offset"/>
                    </mxGeometry>
                </mxCell>
                <mxCell id="227" value="" style="curved=1;endArrow=openThin;html=1;endFill=0;entryX=0.011;entryY=0.033;entryDx=0;entryDy=0;entryPerimeter=0;strokeWidth=2;exitX=0.239;exitY=1.067;exitDx=0;exitDy=0;exitPerimeter=0;" edge="1" parent="1" source="65" target="223">
                    <mxGeometry width="50" height="50" relative="1" as="geometry">
                        <mxPoint x="960" y="332" as="sourcePoint"/>
                        <mxPoint x="1056" y="260" as="targetPoint"/>
                        <Array as="points">
                            <mxPoint x="1030" y="210"/>
                        </Array>
                    </mxGeometry>
                </mxCell>
                <mxCell id="228" value="client id" style="text;html=1;align=center;verticalAlign=middle;whiteSpace=wrap;rounded=0;" vertex="1" parent="1">
                    <mxGeometry x="1330" y="40" width="60" height="30" as="geometry"/>
                </mxCell>
                <mxCell id="229" value=" mSubscribedPropsByClient" style="text;whiteSpace=wrap;html=1;fontStyle=1" vertex="1" parent="1">
                    <mxGeometry x="790" y="-50" width="180" height="40" as="geometry"/>
                </mxCell>
                <mxCell id="230" value="" style="shape=table;startSize=0;container=1;collapsible=0;childLayout=tableLayout;fontSize=16;strokeWidth=2;" vertex="1" parent="1">
                    <mxGeometry x="970" y="-70" width="180" height="60" as="geometry"/>
                </mxCell>
                <mxCell id="231" value="" style="shape=tableRow;horizontal=0;startSize=0;swimlaneHead=0;swimlaneBody=0;strokeColor=inherit;top=0;left=0;bottom=0;right=0;collapsible=0;dropTarget=0;fillColor=none;points=[[0,0.5],[1,0.5]];portConstraint=eastwest;fontSize=16;" vertex="1" parent="230">
                    <mxGeometry width="180" height="30" as="geometry"/>
                </mxCell>
                <mxCell id="232" value="" style="shape=partialRectangle;html=1;whiteSpace=wrap;connectable=0;strokeColor=inherit;overflow=hidden;fillColor=none;top=0;left=0;bottom=0;right=0;pointerEvents=1;fontSize=16;" vertex="1" parent="231">
                    <mxGeometry width="30" height="30" as="geometry">
                        <mxRectangle width="30" height="30" as="alternateBounds"/>
                    </mxGeometry>
                </mxCell>
                <mxCell id="233" style="shape=partialRectangle;html=1;whiteSpace=wrap;connectable=0;strokeColor=inherit;overflow=hidden;fillColor=#0066CC;top=0;left=0;bottom=0;right=0;pointerEvents=1;fontSize=16;sketch=1;curveFitting=1;jiggle=2;" vertex="1" parent="231">
                    <mxGeometry x="30" width="30" height="30" as="geometry">
                        <mxRectangle width="30" height="30" as="alternateBounds"/>
                    </mxGeometry>
                </mxCell>
                <mxCell id="234" style="shape=partialRectangle;html=1;whiteSpace=wrap;connectable=0;strokeColor=inherit;overflow=hidden;fillColor=none;top=0;left=0;bottom=0;right=0;pointerEvents=1;fontSize=16;" vertex="1" parent="231">
                    <mxGeometry x="60" width="30" height="30" as="geometry">
                        <mxRectangle width="30" height="30" as="alternateBounds"/>
                    </mxGeometry>
                </mxCell>
                <mxCell id="235" style="shape=partialRectangle;html=1;whiteSpace=wrap;connectable=0;strokeColor=inherit;overflow=hidden;fillColor=none;top=0;left=0;bottom=0;right=0;pointerEvents=1;fontSize=16;" vertex="1" parent="231">
                    <mxGeometry x="90" width="30" height="30" as="geometry">
                        <mxRectangle width="30" height="30" as="alternateBounds"/>
                    </mxGeometry>
                </mxCell>
                <mxCell id="236" style="shape=partialRectangle;html=1;whiteSpace=wrap;connectable=0;strokeColor=inherit;overflow=hidden;fillColor=none;top=0;left=0;bottom=0;right=0;pointerEvents=1;fontSize=16;" vertex="1" parent="231">
                    <mxGeometry x="120" width="30" height="30" as="geometry">
                        <mxRectangle width="30" height="30" as="alternateBounds"/>
                    </mxGeometry>
                </mxCell>
                <mxCell id="237" style="shape=partialRectangle;html=1;whiteSpace=wrap;connectable=0;strokeColor=inherit;overflow=hidden;fillColor=none;top=0;left=0;bottom=0;right=0;pointerEvents=1;fontSize=16;" vertex="1" parent="231">
                    <mxGeometry x="150" width="30" height="30" as="geometry">
                        <mxRectangle width="30" height="30" as="alternateBounds"/>
                    </mxGeometry>
                </mxCell>
                <mxCell id="238" style="shape=tableRow;horizontal=0;startSize=0;swimlaneHead=0;swimlaneBody=0;strokeColor=inherit;top=0;left=0;bottom=0;right=0;collapsible=0;dropTarget=0;fillColor=none;points=[[0,0.5],[1,0.5]];portConstraint=eastwest;fontSize=16;" vertex="1" parent="230">
                    <mxGeometry y="30" width="180" height="30" as="geometry"/>
                </mxCell>
                <mxCell id="239" style="shape=partialRectangle;html=1;whiteSpace=wrap;connectable=0;strokeColor=inherit;overflow=hidden;fillColor=none;top=0;left=0;bottom=0;right=0;pointerEvents=1;fontSize=16;" vertex="1" parent="238">
                    <mxGeometry width="30" height="30" as="geometry">
                        <mxRectangle width="30" height="30" as="alternateBounds"/>
                    </mxGeometry>
                </mxCell>
                <mxCell id="240" style="shape=partialRectangle;html=1;whiteSpace=wrap;connectable=0;strokeColor=inherit;overflow=hidden;fillColor=#FFCC99;top=0;left=0;bottom=0;right=0;pointerEvents=1;fontSize=16;sketch=1;curveFitting=1;jiggle=2;" vertex="1" parent="238">
                    <mxGeometry x="30" width="30" height="30" as="geometry">
                        <mxRectangle width="30" height="30" as="alternateBounds"/>
                    </mxGeometry>
                </mxCell>
                <mxCell id="241" style="shape=partialRectangle;html=1;whiteSpace=wrap;connectable=0;strokeColor=inherit;overflow=hidden;fillColor=none;top=0;left=0;bottom=0;right=0;pointerEvents=1;fontSize=16;" vertex="1" parent="238">
                    <mxGeometry x="60" width="30" height="30" as="geometry">
                        <mxRectangle width="30" height="30" as="alternateBounds"/>
                    </mxGeometry>
                </mxCell>
                <mxCell id="242" style="shape=partialRectangle;html=1;whiteSpace=wrap;connectable=0;strokeColor=inherit;overflow=hidden;fillColor=none;top=0;left=0;bottom=0;right=0;pointerEvents=1;fontSize=16;" vertex="1" parent="238">
                    <mxGeometry x="90" width="30" height="30" as="geometry">
                        <mxRectangle width="30" height="30" as="alternateBounds"/>
                    </mxGeometry>
                </mxCell>
                <mxCell id="243" style="shape=partialRectangle;html=1;whiteSpace=wrap;connectable=0;strokeColor=inherit;overflow=hidden;fillColor=none;top=0;left=0;bottom=0;right=0;pointerEvents=1;fontSize=16;" vertex="1" parent="238">
                    <mxGeometry x="120" width="30" height="30" as="geometry">
                        <mxRectangle width="30" height="30" as="alternateBounds"/>
                    </mxGeometry>
                </mxCell>
                <mxCell id="244" style="shape=partialRectangle;html=1;whiteSpace=wrap;connectable=0;strokeColor=inherit;overflow=hidden;fillColor=none;top=0;left=0;bottom=0;right=0;pointerEvents=1;fontSize=16;" vertex="1" parent="238">
                    <mxGeometry x="150" width="30" height="30" as="geometry">
                        <mxRectangle width="30" height="30" as="alternateBounds"/>
                    </mxGeometry>
                </mxCell>
                <mxCell id="245" value="" style="curved=1;endArrow=openThin;html=1;endFill=0;entryX=0.25;entryY=-0.133;entryDx=0;entryDy=0;entryPerimeter=0;strokeWidth=2;exitX=0.5;exitY=0;exitDx=0;exitDy=0;" edge="1" parent="1" source="228" target="231">
                    <mxGeometry width="50" height="50" relative="1" as="geometry">
                        <mxPoint x="995" y="-150" as="sourcePoint"/>
                        <mxPoint x="1046" y="-210" as="targetPoint"/>
                        <Array as="points">
                            <mxPoint x="1260" y="-90"/>
                            <mxPoint x="1030" y="-148"/>
                        </Array>
                    </mxGeometry>
                </mxCell>
                <mxCell id="247" value="" style="curved=1;endArrow=openThin;html=1;endFill=0;entryX=0.278;entryY=1.033;entryDx=0;entryDy=0;strokeWidth=2;exitX=0.5;exitY=0;exitDx=0;exitDy=0;entryPerimeter=0;" edge="1" parent="1" source="87" target="238">
                    <mxGeometry width="50" height="50" relative="1" as="geometry">
                        <mxPoint x="1025" y="-64" as="sourcePoint"/>
                        <mxPoint x="1005" y="-140" as="targetPoint"/>
                        <Array as="points">
                            <mxPoint x="860" y="20"/>
                            <mxPoint x="1020" y="10"/>
                        </Array>
                    </mxGeometry>
                </mxCell>
                <mxCell id="251" value=" mContSubConfigsByPropIdArea" style="text;whiteSpace=wrap;html=1;fontStyle=1" vertex="1" parent="1">
                    <mxGeometry x="790" y="270" width="200" height="40" as="geometry"/>
                </mxCell>
                <mxCell id="252" value="" style="shape=table;startSize=0;container=1;collapsible=0;childLayout=tableLayout;fontSize=16;strokeWidth=2;" vertex="1" parent="1">
                    <mxGeometry x="1000" y="260" width="180" height="60" as="geometry"/>
                </mxCell>
                <mxCell id="253" value="" style="shape=tableRow;horizontal=0;startSize=0;swimlaneHead=0;swimlaneBody=0;strokeColor=inherit;top=0;left=0;bottom=0;right=0;collapsible=0;dropTarget=0;fillColor=none;points=[[0,0.5],[1,0.5]];portConstraint=eastwest;fontSize=16;" vertex="1" parent="252">
                    <mxGeometry width="180" height="30" as="geometry"/>
                </mxCell>
                <mxCell id="254" value="" style="shape=partialRectangle;html=1;whiteSpace=wrap;connectable=0;strokeColor=inherit;overflow=hidden;fillColor=none;top=0;left=0;bottom=0;right=0;pointerEvents=1;fontSize=16;" vertex="1" parent="253">
                    <mxGeometry width="30" height="30" as="geometry">
                        <mxRectangle width="30" height="30" as="alternateBounds"/>
                    </mxGeometry>
                </mxCell>
                <mxCell id="255" style="shape=partialRectangle;html=1;whiteSpace=wrap;connectable=0;strokeColor=inherit;overflow=hidden;fillColor=#FFCC99;top=0;left=0;bottom=0;right=0;pointerEvents=1;fontSize=16;sketch=1;curveFitting=1;jiggle=2;" vertex="1" parent="253">
                    <mxGeometry x="30" width="30" height="30" as="geometry">
                        <mxRectangle width="30" height="30" as="alternateBounds"/>
                    </mxGeometry>
                </mxCell>
                <mxCell id="256" style="shape=partialRectangle;html=1;whiteSpace=wrap;connectable=0;strokeColor=inherit;overflow=hidden;fillColor=none;top=0;left=0;bottom=0;right=0;pointerEvents=1;fontSize=16;" vertex="1" parent="253">
                    <mxGeometry x="60" width="30" height="30" as="geometry">
                        <mxRectangle width="30" height="30" as="alternateBounds"/>
                    </mxGeometry>
                </mxCell>
                <mxCell id="257" style="shape=partialRectangle;html=1;whiteSpace=wrap;connectable=0;strokeColor=inherit;overflow=hidden;fillColor=none;top=0;left=0;bottom=0;right=0;pointerEvents=1;fontSize=16;" vertex="1" parent="253">
                    <mxGeometry x="90" width="30" height="30" as="geometry">
                        <mxRectangle width="30" height="30" as="alternateBounds"/>
                    </mxGeometry>
                </mxCell>
                <mxCell id="258" style="shape=partialRectangle;html=1;whiteSpace=wrap;connectable=0;strokeColor=inherit;overflow=hidden;fillColor=none;top=0;left=0;bottom=0;right=0;pointerEvents=1;fontSize=16;" vertex="1" parent="253">
                    <mxGeometry x="120" width="30" height="30" as="geometry">
                        <mxRectangle width="30" height="30" as="alternateBounds"/>
                    </mxGeometry>
                </mxCell>
                <mxCell id="259" style="shape=partialRectangle;html=1;whiteSpace=wrap;connectable=0;strokeColor=inherit;overflow=hidden;fillColor=none;top=0;left=0;bottom=0;right=0;pointerEvents=1;fontSize=16;" vertex="1" parent="253">
                    <mxGeometry x="150" width="30" height="30" as="geometry">
                        <mxRectangle width="30" height="30" as="alternateBounds"/>
                    </mxGeometry>
                </mxCell>
                <mxCell id="260" style="shape=tableRow;horizontal=0;startSize=0;swimlaneHead=0;swimlaneBody=0;strokeColor=inherit;top=0;left=0;bottom=0;right=0;collapsible=0;dropTarget=0;fillColor=none;points=[[0,0.5],[1,0.5]];portConstraint=eastwest;fontSize=16;" vertex="1" parent="252">
                    <mxGeometry y="30" width="180" height="30" as="geometry"/>
                </mxCell>
                <mxCell id="261" style="shape=partialRectangle;html=1;whiteSpace=wrap;connectable=0;strokeColor=inherit;overflow=hidden;fillColor=none;top=0;left=0;bottom=0;right=0;pointerEvents=1;fontSize=16;" vertex="1" parent="260">
                    <mxGeometry width="30" height="30" as="geometry">
                        <mxRectangle width="30" height="30" as="alternateBounds"/>
                    </mxGeometry>
                </mxCell>
                <mxCell id="262" style="shape=partialRectangle;html=1;whiteSpace=wrap;connectable=0;strokeColor=inherit;overflow=hidden;fillColor=#66CC00;top=0;left=0;bottom=0;right=0;pointerEvents=1;fontSize=16;sketch=1;curveFitting=1;jiggle=2;" vertex="1" parent="260">
                    <mxGeometry x="30" width="30" height="30" as="geometry">
                        <mxRectangle width="30" height="30" as="alternateBounds"/>
                    </mxGeometry>
                </mxCell>
                <mxCell id="263" style="shape=partialRectangle;html=1;whiteSpace=wrap;connectable=0;strokeColor=inherit;overflow=hidden;fillColor=none;top=0;left=0;bottom=0;right=0;pointerEvents=1;fontSize=16;" vertex="1" parent="260">
                    <mxGeometry x="60" width="30" height="30" as="geometry">
                        <mxRectangle width="30" height="30" as="alternateBounds"/>
                    </mxGeometry>
                </mxCell>
                <mxCell id="264" style="shape=partialRectangle;html=1;whiteSpace=wrap;connectable=0;strokeColor=inherit;overflow=hidden;fillColor=none;top=0;left=0;bottom=0;right=0;pointerEvents=1;fontSize=16;" vertex="1" parent="260">
                    <mxGeometry x="90" width="30" height="30" as="geometry">
                        <mxRectangle width="30" height="30" as="alternateBounds"/>
                    </mxGeometry>
                </mxCell>
                <mxCell id="265" style="shape=partialRectangle;html=1;whiteSpace=wrap;connectable=0;strokeColor=inherit;overflow=hidden;fillColor=none;top=0;left=0;bottom=0;right=0;pointerEvents=1;fontSize=16;" vertex="1" parent="260">
                    <mxGeometry x="120" width="30" height="30" as="geometry">
                        <mxRectangle width="30" height="30" as="alternateBounds"/>
                    </mxGeometry>
                </mxCell>
                <mxCell id="266" style="shape=partialRectangle;html=1;whiteSpace=wrap;connectable=0;strokeColor=inherit;overflow=hidden;fillColor=none;top=0;left=0;bottom=0;right=0;pointerEvents=1;fontSize=16;" vertex="1" parent="260">
                    <mxGeometry x="150" width="30" height="30" as="geometry">
                        <mxRectangle width="30" height="30" as="alternateBounds"/>
                    </mxGeometry>
                </mxCell>
                <mxCell id="267" value="" style="curved=1;endArrow=openThin;html=1;entryX=0.25;entryY=0;entryDx=0;entryDy=0;exitX=0.5;exitY=1;exitDx=0;exitDy=0;endFill=0;strokeWidth=2;" edge="1" parent="1" source="87" target="252">
                    <mxGeometry width="50" height="50" relative="1" as="geometry">
                        <mxPoint x="890" y="65" as="sourcePoint"/>
                        <mxPoint x="984" y="99" as="targetPoint"/>
                        <Array as="points">
                            <mxPoint x="860" y="170"/>
                            <mxPoint x="920" y="220"/>
                            <mxPoint x="1050" y="220"/>
                        </Array>
                    </mxGeometry>
                </mxCell>
                <mxCell id="268" value="continous subscription&amp;nbsp;&lt;div&gt;config&amp;nbsp;&lt;/div&gt;" style="text;html=1;align=center;verticalAlign=middle;whiteSpace=wrap;rounded=0;" vertex="1" parent="1">
                    <mxGeometry x="1155" y="340" width="75" height="40" as="geometry"/>
                </mxCell>
                <mxCell id="269" value="" style="curved=1;endArrow=openThin;html=1;endFill=0;entryX=0;entryY=0.5;entryDx=0;entryDy=0;strokeWidth=2;exitX=0.244;exitY=1;exitDx=0;exitDy=0;exitPerimeter=0;" edge="1" parent="1" source="260" target="268">
                    <mxGeometry width="50" height="50" relative="1" as="geometry">
                        <mxPoint x="1020" y="450" as="sourcePoint"/>
                        <mxPoint x="1188" y="459" as="targetPoint"/>
                        <Array as="points">
                            <mxPoint x="1060" y="370"/>
                        </Array>
                    </mxGeometry>
                </mxCell>
                <mxCell id="270" value="" style="shape=table;startSize=0;container=1;collapsible=0;childLayout=tableLayout;fontSize=16;strokeWidth=2;" vertex="1" parent="1">
                    <mxGeometry x="1290" y="380" width="90" height="60" as="geometry"/>
                </mxCell>
                <mxCell id="271" value="" style="shape=tableRow;horizontal=0;startSize=0;swimlaneHead=0;swimlaneBody=0;strokeColor=inherit;top=0;left=0;bottom=0;right=0;collapsible=0;dropTarget=0;fillColor=none;points=[[0,0.5],[1,0.5]];portConstraint=eastwest;fontSize=16;" vertex="1" parent="270">
                    <mxGeometry width="90" height="30" as="geometry"/>
                </mxCell>
                <mxCell id="272" value="" style="shape=partialRectangle;html=1;whiteSpace=wrap;connectable=0;strokeColor=inherit;overflow=hidden;fillColor=none;top=0;left=0;bottom=0;right=0;pointerEvents=1;fontSize=16;" vertex="1" parent="271">
                    <mxGeometry width="30" height="30" as="geometry">
                        <mxRectangle width="30" height="30" as="alternateBounds"/>
                    </mxGeometry>
                </mxCell>
                <mxCell id="273" style="shape=partialRectangle;html=1;whiteSpace=wrap;connectable=0;strokeColor=inherit;overflow=hidden;fillColor=#0066CC;top=0;left=0;bottom=0;right=0;pointerEvents=1;fontSize=16;sketch=1;curveFitting=1;jiggle=2;" vertex="1" parent="271">
                    <mxGeometry x="30" width="30" height="30" as="geometry">
                        <mxRectangle width="30" height="30" as="alternateBounds"/>
                    </mxGeometry>
                </mxCell>
                <mxCell id="274" style="shape=partialRectangle;html=1;whiteSpace=wrap;connectable=0;strokeColor=inherit;overflow=hidden;fillColor=none;top=0;left=0;bottom=0;right=0;pointerEvents=1;fontSize=16;" vertex="1" parent="271">
                    <mxGeometry x="60" width="30" height="30" as="geometry">
                        <mxRectangle width="30" height="30" as="alternateBounds"/>
                    </mxGeometry>
                </mxCell>
                <mxCell id="275" style="shape=tableRow;horizontal=0;startSize=0;swimlaneHead=0;swimlaneBody=0;strokeColor=inherit;top=0;left=0;bottom=0;right=0;collapsible=0;dropTarget=0;fillColor=none;points=[[0,0.5],[1,0.5]];portConstraint=eastwest;fontSize=16;" vertex="1" parent="270">
                    <mxGeometry y="30" width="90" height="30" as="geometry"/>
                </mxCell>
                <mxCell id="276" style="shape=partialRectangle;html=1;whiteSpace=wrap;connectable=0;strokeColor=inherit;overflow=hidden;fillColor=none;top=0;left=0;bottom=0;right=0;pointerEvents=1;fontSize=16;" vertex="1" parent="275">
                    <mxGeometry width="30" height="30" as="geometry">
                        <mxRectangle width="30" height="30" as="alternateBounds"/>
                    </mxGeometry>
                </mxCell>
                <mxCell id="277" style="shape=partialRectangle;html=1;whiteSpace=wrap;connectable=0;strokeColor=inherit;overflow=hidden;fillColor=#66CC00;top=0;left=0;bottom=0;right=0;pointerEvents=1;fontSize=16;sketch=1;curveFitting=1;jiggle=2;" vertex="1" parent="275">
                    <mxGeometry x="30" width="30" height="30" as="geometry">
                        <mxRectangle width="30" height="30" as="alternateBounds"/>
                    </mxGeometry>
                </mxCell>
                <mxCell id="278" style="shape=partialRectangle;html=1;whiteSpace=wrap;connectable=0;strokeColor=inherit;overflow=hidden;fillColor=none;top=0;left=0;bottom=0;right=0;pointerEvents=1;fontSize=16;" vertex="1" parent="275">
                    <mxGeometry x="60" width="30" height="30" as="geometry">
                        <mxRectangle width="30" height="30" as="alternateBounds"/>
                    </mxGeometry>
                </mxCell>
                <mxCell id="280" value="" style="shape=curlyBracket;whiteSpace=wrap;html=1;rounded=1;labelPosition=left;verticalLabelPosition=middle;align=right;verticalAlign=middle;rotation=25;strokeWidth=2;" vertex="1" parent="1">
                    <mxGeometry x="1240" y="300" width="20" height="120" as="geometry"/>
                </mxCell>
                <mxCell id="283" value="" style="curved=1;endArrow=openThin;html=1;endFill=0;entryX=0.456;entryY=-0.1;entryDx=0;entryDy=0;entryPerimeter=0;strokeWidth=2;exitX=1;exitY=0.5;exitDx=0;exitDy=0;" edge="1" parent="1" source="228" target="271">
                    <mxGeometry width="50" height="50" relative="1" as="geometry">
                        <mxPoint x="1614" y="120" as="sourcePoint"/>
                        <mxPoint x="1440" y="238" as="targetPoint"/>
                        <Array as="points">
                            <mxPoint x="1460" y="40"/>
                            <mxPoint x="1330" y="280"/>
                        </Array>
                    </mxGeometry>
                </mxCell>
                <mxCell id="284" value="sample rate" style="text;html=1;align=center;verticalAlign=middle;whiteSpace=wrap;rounded=0;" vertex="1" parent="1">
                    <mxGeometry x="1320" y="470" width="60" height="30" as="geometry"/>
                </mxCell>
                <mxCell id="285" value="" style="curved=1;endArrow=openThin;html=1;endFill=0;entryX=0.511;entryY=1.067;entryDx=0;entryDy=0;entryPerimeter=0;strokeWidth=2;exitX=0.5;exitY=0;exitDx=0;exitDy=0;" edge="1" parent="1" source="284" target="275">
                    <mxGeometry width="50" height="50" relative="1" as="geometry">
                        <mxPoint x="1400" y="65" as="sourcePoint"/>
                        <mxPoint x="1341" y="387" as="targetPoint"/>
                        <Array as="points"/>
                    </mxGeometry>
                </mxCell>
                <mxCell id="286" value="priority queue" style="text;html=1;align=center;verticalAlign=middle;whiteSpace=wrap;rounded=0;" vertex="1" parent="1">
                    <mxGeometry x="440" y="525" width="60" height="30" as="geometry"/>
                </mxCell>
                <mxCell id="287" value="mCallbackQueue" style="text;whiteSpace=wrap;html=1;fontStyle=1" vertex="1" parent="1">
                    <mxGeometry x="265" y="525" width="200" height="40" as="geometry"/>
                </mxCell>
                <mxCell id="288" value="callback info" style="text;html=1;align=center;verticalAlign=middle;whiteSpace=wrap;rounded=0;" vertex="1" parent="1">
                    <mxGeometry x="250" y="555" width="60" height="30" as="geometry"/>
                </mxCell>
                <mxCell id="290" value="" style="curved=1;endArrow=openThin;html=1;entryX=0;entryY=0.25;entryDx=0;entryDy=0;exitX=1;exitY=0.5;exitDx=0;exitDy=0;endFill=0;strokeWidth=2;" edge="1" parent="1" source="288" target="178">
                    <mxGeometry width="50" height="50" relative="1" as="geometry">
                        <mxPoint x="63" y="589" as="sourcePoint"/>
                        <mxPoint x="95" y="660" as="targetPoint"/>
                        <Array as="points"/>
                    </mxGeometry>
                </mxCell>
                <mxCell id="293" value="" style="rounded=0;whiteSpace=wrap;html=1;sketch=1;curveFitting=1;jiggle=2;fillColor=#7F00FF;" vertex="1" parent="1">
                    <mxGeometry x="70" y="277.45000000000005" width="30" height="30" as="geometry"/>
                </mxCell>
                <mxCell id="294" value="" style="rounded=0;whiteSpace=wrap;html=1;sketch=1;curveFitting=1;jiggle=2;fillColor=#7F00FF;" vertex="1" parent="1">
                    <mxGeometry x="190" y="277.45000000000005" width="30" height="30" as="geometry"/>
                </mxCell>
                <mxCell id="295" value="" style="endArrow=none;html=1;endFill=0;startArrow=async;startFill=1;" edge="1" parent="1">
                    <mxGeometry width="50" height="50" relative="1" as="geometry">
                        <mxPoint x="70" y="267.45000000000005" as="sourcePoint"/>
                        <mxPoint x="100" y="267.45000000000005" as="targetPoint"/>
                    </mxGeometry>
                </mxCell>
                <mxCell id="296" value="" style="endArrow=none;html=1;endFill=0;startArrow=async;startFill=1;" edge="1" parent="1">
                    <mxGeometry width="50" height="50" relative="1" as="geometry">
                        <mxPoint x="190" y="267.45000000000005" as="sourcePoint"/>
                        <mxPoint x="220" y="267.45000000000005" as="targetPoint"/>
                    </mxGeometry>
                </mxCell>
                <mxCell id="297" value="" style="curved=1;endArrow=classic;html=1;entryX=0;entryY=0.5;entryDx=0;entryDy=0;exitX=0.5;exitY=0;exitDx=0;exitDy=0;strokeWidth=2;strokeColor=#00CCCC;" edge="1" parent="1" source="11" target="5">
                    <mxGeometry width="50" height="50" relative="1" as="geometry">
                        <mxPoint x="211" y="185" as="sourcePoint"/>
                        <mxPoint x="-10" y="202" as="targetPoint"/>
                        <Array as="points">
                            <mxPoint x="70" y="100"/>
                        </Array>
                    </mxGeometry>
                </mxCell>
                <mxCell id="299" value="onPropertyChangeEvent" style="edgeLabel;html=1;align=center;verticalAlign=middle;resizable=0;points=[];" vertex="1" connectable="0" parent="297">
                    <mxGeometry x="-0.2221" y="-25" relative="1" as="geometry">
                        <mxPoint as="offset"/>
                    </mxGeometry>
                </mxCell>
                <mxCell id="300" value="" style="rounded=0;whiteSpace=wrap;html=1;sketch=1;curveFitting=1;jiggle=2;fillColor=#7F00FF;" vertex="1" parent="1">
                    <mxGeometry x="-10" y="90" width="30" height="30" as="geometry"/>
                </mxCell>
                <mxCell id="301" value="" style="rounded=0;whiteSpace=wrap;html=1;sketch=1;curveFitting=1;jiggle=2;fillColor=#7F00FF;" vertex="1" parent="1">
                    <mxGeometry x="110" y="90" width="30" height="30" as="geometry"/>
                </mxCell>
                <mxCell id="302" value="" style="endArrow=async;html=1;endFill=1;" edge="1" parent="1">
                    <mxGeometry width="50" height="50" relative="1" as="geometry">
                        <mxPoint x="-10" y="80" as="sourcePoint"/>
                        <mxPoint x="20" y="80" as="targetPoint"/>
                    </mxGeometry>
                </mxCell>
                <mxCell id="303" value="" style="endArrow=async;html=1;endFill=1;" edge="1" parent="1">
                    <mxGeometry width="50" height="50" relative="1" as="geometry">
                        <mxPoint x="110" y="80" as="sourcePoint"/>
                        <mxPoint x="140" y="80" as="targetPoint"/>
                    </mxGeometry>
                </mxCell>
            </root>
        </mxGraphModel>
    </diagram>
</mxfile>